<svg xmlns="http://www.w3.org/2000/svg" xmlns:xlink="http://www.w3.org/1999/xlink" width="85.383" height="85.118" viewBox="0 0 85.383 85.118">
  <defs>
    <linearGradient id="linear-gradient" x1="0.5" x2="0.5" y2="1" gradientUnits="objectBoundingBox">
      <stop offset="0" stop-color="#95ffc3"/>
      <stop offset="1" stop-color="#296395"/>
    </linearGradient>
  </defs>
  <g id="Path_28" data-name="Path 28" transform="translate(39.397 5.527) rotate(41)" fill="url(#linear-gradient)">
    <path d="M 22.67533111572266 54.83066558837891 C 16.31245231628418 54.83066558837891 10.78817176818848 54.67526626586914 6.69970178604126 54.38125610351563 C 0.4191015660762787 53.92961502075195 -0.8634584546089172 53.26994705200195 -1.123358488082886 53.00729370117188 C -1.369778394699097 52.75825500488281 -2.226798534393311 51.39898681640625 -2.908838510513306 44.36418533325195 C -3.372018337249756 39.58670425415039 -3.618268489837646 33.59860610961914 -3.602228403091431 27.50294494628906 C -3.584908485412598 20.91962432861328 -3.2679283618927 14.95621490478516 -2.685568332672119 10.25742530822754 C -1.858478426933289 3.584125280380249 -0.718938410282135 1.224135279655457 0.09138156473636627 0.4194552898406982 C 0.9221515655517578 -0.4055447280406952 3.499531507492065 -1.561714768409729 11.06031131744385 -2.384614706039429 C 16.23173141479492 -2.947454690933228 23.06946182250977 -3.257424831390381 30.31391143798828 -3.257424831390381 C 36.60505294799805 -3.257424831390381 42.7152099609375 -3.031664609909058 47.51882171630859 -2.62171483039856 C 54.83100128173828 -1.997674703598022 55.62182235717773 -1.246494770050049 55.68793106079102 -1.162894725799561 C 55.84306335449219 -0.961864709854126 56.38013076782227 0.2882452607154846 56.77585983276367 7.931205272674561 C 57.02838134765625 12.80824565887451 57.16675186157227 19.2330150604248 57.16548156738281 26.02200508117676 C 57.16422271728516 32.77293395996094 57.02561187744141 39.18052673339844 56.77519226074219 44.06442642211914 C 56.38443756103516 51.68536758422852 55.86006546020508 52.82956314086914 55.74129486083984 52.99294281005859 C 55.59468841552734 53.08918762207031 54.28882217407227 53.70689010620117 44.47429275512695 54.25876617431641 C 38.01066207885742 54.62221527099609 30.06524085998535 54.83066558837891 22.67533111572266 54.83066558837891 Z" stroke="none"/>
    <path d="M 30.31393241882324 -2.757434844970703 C 23.08698081970215 -2.757434844970703 16.26847076416016 -2.448505401611328 11.11442184448242 -1.887546539306641 C 8.232860565185547 -1.573925018310547 5.850761413574219 -1.183586120605469 4.034271240234375 -0.7273635864257813 C 1.613613128662109 -0.1194038391113281 0.7456321716308594 0.474395751953125 0.4436798095703125 0.7742347717285156 C -0.17388916015625 1.387516021728516 -1.337177276611328 3.443023681640625 -2.189369201660156 10.31892395019531 C -2.769309997558594 14.99810409545898 -3.084968566894531 20.94069480895996 -3.102237701416016 27.5042552947998 C -3.118236541748047 33.58389282226563 -2.872806549072266 39.55439758300781 -2.411178588867188 44.31592559814453 C -1.712852478027344 51.51875686645508 -0.834442138671875 52.58428955078125 -0.7704200744628906 52.65301132202148 C -0.6692390441894531 52.73948287963867 0.3326835632324219 53.43021011352539 6.867652893066406 53.8919563293457 C 10.92952346801758 54.1789665222168 16.39573287963867 54.33066558837891 22.67534065246582 54.33066558837891 C 29.91002082824707 54.33066558837891 37.72498321533203 54.12918472290039 44.11638259887695 53.77788543701172 C 52.76944351196289 53.30228424072266 54.89255523681641 52.77886581420898 55.36872482299805 52.61141967773438 C 55.53218460083008 52.17176818847656 55.96162796020508 50.41091918945313 56.29426193237305 43.67288589477539 C 56.53374099731445 38.82191467285156 56.66557312011719 32.51863479614258 56.66548156738281 25.92417526245117 C 56.66540145874023 19.28938674926758 56.53116989135742 12.98490524291992 56.28753280639648 8.172084808349609 C 55.92643737792969 1.038887023925781 55.44667053222656 -0.5153045654296875 55.30206680297852 -0.8297233581542969 C 55.04565811157227 -0.9849166870117188 53.62804794311523 -1.620826721191406 47.06687164306641 -2.157745361328125 C 42.34107971191406 -2.544464111328125 36.39144134521484 -2.757434844970703 30.31393241882324 -2.757434844970703 M 30.31393432617188 -3.757431030273438 C 43.03068542480469 -3.757431030273438 55.04328918457031 -2.816688537597656 56.08372116088867 -1.468433380126953 C 58.22873306274414 1.311214447021484 58.15644073486328 51.43972396850586 56.08372116088867 53.35896682739258 C 54.91971588134766 54.43678665161133 37.9235725402832 55.33066177368164 22.67534255981445 55.33066177368164 C 10.77141571044922 55.33066177368164 -0.06668472290039063 54.78603744506836 -1.478778839111328 53.35896682739258 C -4.699668884277344 50.10391616821289 -5.659717559814453 5.425884246826172 -0.2609481811523438 0.064666748046875 C 2.519168853759766 -2.696121215820313 16.81308746337891 -3.757431030273438 30.31393432617188 -3.757431030273438 Z" stroke="none" fill="#707070"/>
  </g>
</svg>
