<svg xmlns="http://www.w3.org/2000/svg" width="50" height="40" viewBox="0 0 50 40">
  <path id="ic_supervisor_account_24px" d="M38.25,25c3.45,0,6.225-3.2,6.225-7.143S41.7,10.714,38.25,10.714,32,13.914,32,17.857,34.8,25,38.25,25ZM19.5,22.143c4.15,0,7.475-3.829,7.475-8.571S23.65,5,19.5,5,12,8.829,12,13.571,15.35,22.143,19.5,22.143Zm18.75,8.571c-4.575,0-13.75,2.629-13.75,7.857V45H52V38.571C52,33.343,42.825,30.714,38.25,30.714ZM19.5,27.857c-5.825,0-17.5,3.343-17.5,10V45H19.5V38.571c0-2.429.825-6.686,5.925-9.914A27.052,27.052,0,0,0,19.5,27.857Z" transform="translate(-2 -5)" fill="#fff"/>
</svg>
