<svg xmlns="http://www.w3.org/2000/svg" width="38" height="45" viewBox="0 0 38 45">
  <path id="ic_https_24px" d="M37.25,16H34.875V11.714C34.875,5.8,29.555,1,23,1S11.125,5.8,11.125,11.714V16H8.75A4.549,4.549,0,0,0,4,20.286V41.714A4.549,4.549,0,0,0,8.75,46h28.5A4.549,4.549,0,0,0,42,41.714V20.286A4.549,4.549,0,0,0,37.25,16ZM23,35.286A4.549,4.549,0,0,1,18.25,31,4.549,4.549,0,0,1,23,26.714,4.549,4.549,0,0,1,27.75,31,4.549,4.549,0,0,1,23,35.286ZM30.362,16H15.637V11.714c0-3.664,3.3-6.643,7.363-6.643s7.363,2.979,7.363,6.643Z" transform="translate(-4 -1)" fill="#fff"/>
</svg>
