<svg xmlns="http://www.w3.org/2000/svg" width="315.856" height="428.86" viewBox="0 0 315.856 428.86">
  <g id="Group_97" data-name="Group 97" transform="translate(-1791.353 -956.669)">
    <g id="Group_53" data-name="Group 53" transform="translate(57 624)">
      <path id="Path_11" data-name="Path 11" d="M-4.647,18.4,206.21,200.66v88.066L-4.647,107.865Z" transform="translate(1739 471.273)" fill="#f13c3c"/>
      <g id="Group_36" data-name="Group 36" transform="translate(11 -1283)">
        <line id="Line_20" data-name="Line 20" x1="1" y2="85" transform="translate(1742.5 1818.5)" fill="none" stroke="#fff700" stroke-width="5"/>
        <line id="Line_37" data-name="Line 37" x1="1" y2="85" transform="translate(1730.5 1805.5)" fill="none" stroke="#fff700" stroke-width="5"/>
        <line id="Line_30" data-name="Line 30" x1="1" y2="85" transform="translate(1754.5 1831.5)" fill="none" stroke="#fff700" stroke-width="5"/>
        <line id="Line_22" data-name="Line 22" x1="1" y2="85" transform="translate(1767.5 1841.5)" fill="none" stroke="#fff700" stroke-width="5"/>
        <line id="Line_31" data-name="Line 31" x1="1" y2="85" transform="translate(1779.5 1853.5)" fill="none" stroke="#fff700" stroke-width="5"/>
        <line id="Line_23" data-name="Line 23" x1="1" y2="85" transform="translate(1792.5 1861.5)" fill="none" stroke="#fff700" stroke-width="5"/>
        <line id="Line_32" data-name="Line 32" x1="1" y2="85" transform="translate(1804.5 1874.5)" fill="none" stroke="#fff700" stroke-width="5"/>
        <line id="Line_24" data-name="Line 24" x1="1" y2="85" transform="translate(1817.5 1881.5)" fill="none" stroke="#fff700" stroke-width="5"/>
        <line id="Line_33" data-name="Line 33" x1="1" y2="85" transform="translate(1829.5 1896.5)" fill="none" stroke="#fff700" stroke-width="5"/>
        <line id="Line_25" data-name="Line 25" x1="1" y2="85" transform="translate(1842.5 1903.5)" fill="none" stroke="#fff700" stroke-width="5"/>
        <line id="Line_34" data-name="Line 34" x1="1" y2="85" transform="translate(1854.5 1916.5)" fill="none" stroke="#fff700" stroke-width="5"/>
        <line id="Line_26" data-name="Line 26" x1="1" y2="85" transform="translate(1867.5 1924.5)" fill="none" stroke="#fff700" stroke-width="5"/>
        <line id="Line_35" data-name="Line 35" x1="1" y2="85" transform="translate(1879.5 1937.5)" fill="none" stroke="#fff700" stroke-width="5"/>
        <line id="Line_27" data-name="Line 27" x1="1" y2="85" transform="translate(1892.5 1946.5)" fill="none" stroke="#fff700" stroke-width="5"/>
        <line id="Line_36" data-name="Line 36" x1="1" y2="85" transform="translate(1904.5 1959.5)" fill="none" stroke="#fff700" stroke-width="5"/>
      </g>
    </g>
    <g id="Group_54" data-name="Group 54" transform="translate(15 624)">
      <path id="Path_10" data-name="Path 10" d="M-4.647,18.4,206.21,200.66v88.066L-4.647,107.865Z" transform="translate(1830 401.273)" fill="#f13c3c"/>
      <g id="Group_37" data-name="Group 37" transform="translate(103 -1362)">
        <line id="Line_20-2" data-name="Line 20" x1="1" y2="85" transform="translate(1742.5 1818.5)" fill="none" stroke="#fff700" stroke-width="5"/>
        <line id="Line_37-2" data-name="Line 37" x1="1" y2="85" transform="translate(1730.5 1805.5)" fill="none" stroke="#fff700" stroke-width="5"/>
        <line id="Line_30-2" data-name="Line 30" x1="1" y2="85" transform="translate(1754.5 1831.5)" fill="none" stroke="#fff700" stroke-width="5"/>
        <line id="Line_22-2" data-name="Line 22" x1="1" y2="85" transform="translate(1767.5 1841.5)" fill="none" stroke="#fff700" stroke-width="5"/>
        <line id="Line_31-2" data-name="Line 31" x1="1" y2="85" transform="translate(1779.5 1853.5)" fill="none" stroke="#fff700" stroke-width="5"/>
        <line id="Line_23-2" data-name="Line 23" x1="1" y2="85" transform="translate(1792.5 1861.5)" fill="none" stroke="#fff700" stroke-width="5"/>
        <line id="Line_32-2" data-name="Line 32" x1="1" y2="85" transform="translate(1804.5 1874.5)" fill="none" stroke="#fff700" stroke-width="5"/>
        <line id="Line_24-2" data-name="Line 24" x1="1" y2="85" transform="translate(1817.5 1881.5)" fill="none" stroke="#fff700" stroke-width="5"/>
        <line id="Line_33-2" data-name="Line 33" x1="1" y2="85" transform="translate(1829.5 1896.5)" fill="none" stroke="#fff700" stroke-width="5"/>
        <line id="Line_25-2" data-name="Line 25" x1="1" y2="85" transform="translate(1842.5 1903.5)" fill="none" stroke="#fff700" stroke-width="5"/>
        <line id="Line_34-2" data-name="Line 34" x1="1" y2="85" transform="translate(1854.5 1916.5)" fill="none" stroke="#fff700" stroke-width="5"/>
        <line id="Line_26-2" data-name="Line 26" x1="1" y2="85" transform="translate(1867.5 1924.5)" fill="none" stroke="#fff700" stroke-width="5"/>
        <line id="Line_35-2" data-name="Line 35" x1="1" y2="85" transform="translate(1879.5 1937.5)" fill="none" stroke="#fff700" stroke-width="5"/>
        <line id="Line_27-2" data-name="Line 27" x1="1" y2="85" transform="translate(1892.5 1946.5)" fill="none" stroke="#fff700" stroke-width="5"/>
        <line id="Line_36-2" data-name="Line 36" x1="1" y2="85" transform="translate(1904.5 1959.5)" fill="none" stroke="#fff700" stroke-width="5"/>
      </g>
    </g>
    <g id="Group_55" data-name="Group 55" transform="translate(1 614)">
      <path id="Path_9" data-name="Path 9" d="M-4.647,18.4,206.21,200.66v88.066L-4.647,107.865Z" transform="translate(1900 324.273)" fill="#f13c3c"/>
      <g id="Group_38" data-name="Group 38" transform="translate(172 -1441)">
        <line id="Line_20-3" data-name="Line 20" x1="1" y2="85" transform="translate(1742.5 1818.5)" fill="none" stroke="#fff700" stroke-width="5"/>
        <line id="Line_37-3" data-name="Line 37" x1="1" y2="85" transform="translate(1730.5 1805.5)" fill="none" stroke="#fff700" stroke-width="5"/>
        <line id="Line_30-3" data-name="Line 30" x1="1" y2="85" transform="translate(1754.5 1831.5)" fill="none" stroke="#fff700" stroke-width="5"/>
        <line id="Line_22-3" data-name="Line 22" x1="1" y2="85" transform="translate(1767.5 1841.5)" fill="none" stroke="#fff700" stroke-width="5"/>
        <line id="Line_31-3" data-name="Line 31" x1="1" y2="85" transform="translate(1779.5 1853.5)" fill="none" stroke="#fff700" stroke-width="5"/>
        <line id="Line_23-3" data-name="Line 23" x1="1" y2="85" transform="translate(1792.5 1861.5)" fill="none" stroke="#fff700" stroke-width="5"/>
        <line id="Line_32-3" data-name="Line 32" x1="1" y2="85" transform="translate(1804.5 1874.5)" fill="none" stroke="#fff700" stroke-width="5"/>
        <line id="Line_24-3" data-name="Line 24" x1="1" y2="85" transform="translate(1817.5 1881.5)" fill="none" stroke="#fff700" stroke-width="5"/>
        <line id="Line_33-3" data-name="Line 33" x1="1" y2="85" transform="translate(1829.5 1896.5)" fill="none" stroke="#fff700" stroke-width="5"/>
        <line id="Line_25-3" data-name="Line 25" x1="1" y2="85" transform="translate(1842.5 1903.5)" fill="none" stroke="#fff700" stroke-width="5"/>
        <line id="Line_34-3" data-name="Line 34" x1="1" y2="85" transform="translate(1854.5 1916.5)" fill="none" stroke="#fff700" stroke-width="5"/>
        <line id="Line_26-3" data-name="Line 26" x1="1" y2="85" transform="translate(1867.5 1924.5)" fill="none" stroke="#fff700" stroke-width="5"/>
        <line id="Line_35-3" data-name="Line 35" x1="1" y2="85" transform="translate(1879.5 1937.5)" fill="none" stroke="#fff700" stroke-width="5"/>
        <line id="Line_27-3" data-name="Line 27" x1="1" y2="85" transform="translate(1892.5 1946.5)" fill="none" stroke="#fff700" stroke-width="5"/>
        <line id="Line_36-3" data-name="Line 36" x1="1" y2="85" transform="translate(1904.5 1959.5)" fill="none" stroke="#fff700" stroke-width="5"/>
      </g>
    </g>
  </g>
</svg>
